<svg xmlns="http://www.w3.org/2000/svg" width="79" height="13" fill="none">
  <path fill="#000" d="M5.57579 12.996c-.852 0-1.62-.132-2.304-.396-.684-.276-1.266-.678-1.746-1.206-.48-.54-.851996-1.206-1.115996-1.998-.264-.804-.3960001-1.74-.3960001-2.808 0-1.056.1320001-1.992.3960001-2.808.264-.828.635996-1.518 1.115996-2.07.48-.564 1.062-.99 1.746-1.278.684-.288 1.452-.432 2.304-.432 1.164 0 2.12401.24 2.88001.72.75599.468 1.36199 1.212 1.818 2.232L7.91579 4.176c-.168-.528-.432-.948-.792-1.26-.348-.324-.864-.486-1.548-.486-.804 0-1.452.264-1.944.792-.48.516-.72 1.272-.72 2.268v2.016c0 .996.24 1.758.72 2.286.492.516 1.14.774 1.944.774.672 0 1.206-.18 1.602-.54.408-.372.708-.816.90001-1.332l2.232 1.296c-.46801.96-1.08601 1.704-1.854 2.232-.756.516-1.71601.774-2.88001.774zM19.7089 12.996c-.828 0-1.584-.138-2.268-.414-.684-.276-1.266-.684-1.746-1.224-.48-.552-.852-1.23-1.116-2.034-.264-.816-.396-1.758-.396-2.826s.132-2.004.396-2.808c.264-.816.636-1.494 1.116-2.034.48-.552 1.062-.966 1.746-1.242.684-.276 1.44-.414 2.268-.414.828 0 1.584.138 2.268.414.684.276 1.266.69 1.746 1.242.48.54.852 1.218 1.116 2.034.264.804.396 1.74.396 2.808 0 1.068-.132 2.01-.396 2.826-.264.804-.636 1.482-1.116 2.034-.48.54-1.062.948-1.746 1.224-.684.276-1.44.414-2.268.414zm0-2.43c.828 0 1.47-.27 1.926-.81.468-.54.702-1.314.702-2.322V5.562c0-1.008-.234-1.782-.702-2.322-.456-.54-1.098-.81-1.926-.81-.828 0-1.476.27-1.944.81-.456.54-.684 1.314-.684 2.322v1.872c0 1.008.228 1.782.684 2.322.468.54 1.116.81 1.944.81zM30.1915 12.78V.216001h5.94c.588 0 1.116.101999 1.584.305999.468.192.864.462 1.188.81.336.348.594.774.774 1.278.18.492.27 1.032.27 1.62 0 .6-.09 1.146-.27 1.638-.18.492-.438.912-.774 1.26-.324.348-.72.624-1.188.828-.468.192-.996.288-1.584.288h-3.204v4.536h-2.736zm2.736-6.912h2.88c.408 0 .726-.102.954-.306.24-.216.36-.528.36-.936v-.792c0-.408-.12-.714-.36-.918-.228-.216-.546-.324-.954-.324h-2.88v3.276zM44.191 12.78v-2.178h1.62V2.394h-1.62V.216001h5.976V2.394h-1.62v8.208h1.62v2.178h-5.976zM55.1195 12.78V.216001h8.55V2.646h-5.814V5.22h4.986v2.412h-4.986v2.718h5.814v2.43h-8.55zM68.7261.216001h4.734c.828 0 1.584.131999 2.268.395999.684.264 1.266.66 1.746 1.188.48.516.852 1.17 1.116 1.962.264.78.396 1.692.396 2.736 0 1.044-.132 1.962-.396 2.754-.264.78-.636 1.434-1.116 1.962-.48.516-1.062.906-1.746 1.17-.684.264-1.44.396-2.268.396h-4.734V.216001zM73.4601 10.35c.816 0 1.458-.228 1.926-.684.468-.456.702-1.188.702-2.196V5.526c0-1.008-.234-1.74-.702-2.196-.468-.456-1.11-.684-1.926-.684h-1.998v7.704h1.998z"/>
</svg>
