<svg xmlns="http://www.w3.org/2000/svg" fill="none" width="55" height="13">
  <path fill="#000" d="M5.89196 12.996c-.852 0-1.62-.132-2.304-.396-.684-.276-1.266-.678-1.746-1.206-.48-.54-.852004-1.206-1.116004-1.998-.264-.804-.396-1.74-.396-2.808 0-1.056.132-1.992.396-2.808.264-.828.636004-1.518 1.116004-2.07.48-.564 1.062-.99 1.746-1.278.684-.288 1.452-.432 2.304-.432 1.164 0 2.124.24 2.88.72.756.468 1.36204 1.212 1.81804 2.232L8.23196 4.176c-.168-.528-.432-.948-.792-1.26-.348-.324-.864-.486-1.548-.486-.804 0-1.452.264-1.944.792-.48.516-.72 1.272-.72 2.268v2.016c0 .996.24 1.758.72 2.286.492.516 1.14.774 1.944.774.672 0 1.206-.18 1.602-.54.408-.372.708-.816.9-1.332L10.626 9.99c-.468.96-1.08604 1.704-1.85404 2.232-.756.516-1.716.774-2.88.774zM20.0251 12.996c-.828 0-1.5841-.138-2.2681-.414-.684-.276-1.2659-.684-1.7459-1.224-.48-.552-.852-1.23-1.116-2.034-.2641-.816-.396-1.758-.396-2.826s.1319-2.004.396-2.808c.264-.816.636-1.494 1.116-2.034.48-.552 1.0619-.966 1.7459-1.242C18.441.138 19.1971 0 20.0251 0c.828 0 1.584.138 2.268.414.684.276 1.266.69 1.746 1.242.48.54.852 1.218 1.116 2.034.264.804.396 1.74.396 2.808 0 1.068-.132 2.01-.396 2.826-.264.804-.636 1.482-1.116 2.034-.48.54-1.062.948-1.746 1.224-.684.276-1.44.414-2.268.414zm0-2.43c.828 0 1.4699-.27 1.9259-.81.468-.54.7021-1.314.7021-2.322V5.562c0-1.008-.2341-1.782-.7021-2.322-.456-.54-1.0979-.81-1.9259-.81-.828 0-1.476.27-1.944.81-.456.54-.684 1.314-.684 2.322v1.872c0 1.008.228 1.782.684 2.322.468.54 1.116.81 1.944.81zM30.5077 12.78V.216h5.94c.588 0 1.116.102 1.584.306.468.192.864.462 1.188.81.336.348.594.774.774 1.278.18.492.27 1.032.27 1.62 0 .6-.09 1.146-.27 1.638-.18.492-.438.912-.774 1.26-.324.348-.72.624-1.188.828-.468.192-.996.288-1.584.288h-3.204v4.536h-2.736zm2.736-6.912h2.88c.408 0 .726-.102.954-.306.24-.216.36-.528.36-.936v-.792c0-.408-.12-.714-.36-.918-.228-.216-.546-.324-.954-.324h-2.88v3.276zM47.6141 12.78V7.866l-4.302-7.65h3.06l2.7 5.004h.036l2.592-5.004h2.97l-4.302 7.632v4.932h-2.754z"/>
</svg>
