<svg version="1" xmlns="http://www.w3.org/2000/svg" width="346.667" height="346.667" viewBox="0 0 260.000000 260.000000"><path d="M111 52.5c0 5.2-.3 9.5-.7 9.6-.5 0-1.5.2-2.3.3-.8.2-4.2.6-7.5 1-19.7 2.2-38.1 10.8-49.2 23-10.8 11.8-15.4 24-15.9 42.1-.3 13.8 1.3 21.9 6.8 33.2 5.8 12.2 19.6 24 34.8 30.1 6.9 2.7 21.1 6.1 27 6.3 7.2.4 7 .1 7 10.5v9.4h19.5c14.9 0 19.5-.3 19.6-1.3 0-.6.1-4.9.1-9.4 0-5.4.4-8.3 1.2-8.4 19.8-2.3 30.9-5.6 44-13.3 7.8-4.6 17.8-14.9 21.8-22.3 5-9.4 7-17.8 7.3-30.8.5-19.3-4.2-33.3-15.1-45.4-11.6-12.8-29.4-21.4-49.2-23.8-2.6-.3-5.4-.7-6.2-.9-.8-.1-2-.3-2.6-.3-.8-.1-1.1-3.2-1.1-9.4v-9.2l-19.6-.3L111 43v9.5zm0 78c0 27.5-.3 34.5-1.3 34.5-2.6 0-12.9-3-16.5-4.9-12.9-6.6-19.2-22.2-15.5-38.4 1.7-7.5 3.7-11.2 8.2-15.5 4.4-4.1 9.3-6.8 16.4-8.7 9.6-2.6 8.7-6.1 8.7 33zm49-32.3c15.1 4.5 23.2 15.8 23.2 32.3 0 17.6-8.5 28.5-25.9 33-3.1.8-6 1.5-6.4 1.5-.4 0-.7-15.5-.7-34.5V96.1l3.1.5c1.8.3 4.8 1.1 6.7 1.6z"/></svg>